<svg enable-background="new 0 0 378.059 378.059" height="24" viewBox="0 0 378.059 378.059" width="24" xmlns="http://www.w3.org/2000/svg"><path d="m308.79 125.026h-44.96v-26.48c-.004-3.116-.892-6.168-2.56-8.8 4.554-6.344 7.015-13.951 7.04-21.76-.288-21.294-17.784-38.323-39.078-38.035-5.08.069-10.097 1.141-14.762 3.155-13.236-17.109-36.833-22.267-56-12.24-13.178-20.889-40.794-27.141-61.683-13.963-11.065 6.98-18.519 18.456-20.397 31.404-19.96-7.425-42.16 2.737-49.584 22.697-1.537 4.131-2.354 8.496-2.416 12.903v78.16c.117 13.776 10.346 25.369 24 27.2v160c-1.807 19.534 12.564 36.833 32.098 38.64 2.176.201 4.366.201 6.542 0h138.16c19.534 1.806 36.833-12.564 38.64-32.098.201-2.176.201-4.366 0-6.542v-4.32h44.96c28.08 0 44.88-20.96 44.88-56v-97.92c-.24-35.201-17.04-56.001-44.88-56.001zm-77.725 236.96c-1.948.29-3.928.29-5.876 0h-138.159c-10.881 1.622-21.017-5.883-22.64-16.764-.29-1.948-.29-3.928 0-5.876v-162.56c9.664-4.454 15.894-14.08 16-24.72v-18.4c13.252 4.53 27.909 1.799 38.64-7.2 12.872 21.079 40.395 27.731 61.473 14.859 13.073-7.984 21.151-22.103 21.407-37.419 0-.96 0-2.24 0-3.52s0-1.68 0-2.48h45.28c.353 0 .64.286.64.64v240.8c1.622 10.881-5.883 21.018-16.765 22.64zm16.125-280.08h-53.6c-4.418 0-8 3.582-8 8-.053.532-.053 1.068 0 1.6v.8c.214 2.342.214 4.698 0 7.04v4.56c-.314 15.814-13.388 28.38-29.202 28.067-13.44-.266-24.886-9.844-27.518-23.027-.636-3.429-3.419-6.05-6.88-6.48-3.362-.321-6.563 1.504-8 4.56-5.463 11.345-19.089 16.114-30.434 10.651-2.098-1.01-4.029-2.336-5.726-3.931-3.198-3.049-8.262-2.928-11.31.27-1.43 1.5-2.222 3.497-2.21 5.57v32.48c0 6.627-5.373 12-12 12s-12-5.373-12-12v-78.16c.383-12.498 10.825-22.319 23.323-21.936 6.124.188 11.91 2.849 16.038 7.376 2.841 3.384 7.887 3.825 11.271.984 2.612-2.192 3.547-5.799 2.329-8.984-.826-2.587-1.258-5.284-1.28-8-.142-15.817 12.565-28.754 28.381-28.896 12.652-.114 23.88 8.088 27.619 20.176 1.406 4.189 5.941 6.444 10.13 5.038.98-.329 1.886-.844 2.67-1.518 12.149-10.128 30.209-8.49 40.337 3.66 1.437 1.724 2.666 3.61 3.663 5.62 1.987 3.946 6.797 5.535 10.743 3.548.383-.193.75-.416 1.097-.668 3.863-2.798 8.51-4.31 13.28-4.32 12.296-.133 22.384 9.704 22.56 22-.056 5.119-1.927 10.052-5.281 13.92zm90.32 197.12c0 14.96-3.76 40-28.88 40h-44.8v-28.56h20.48c17.2 0 27.92-13.04 27.92-34v-53.04c0-20.96-10.72-34-27.92-34h-20.48v-28.4h44.96c25.12 0 28.88 25.12 28.88 40zm-73.68-4.48.08-89.04h20.48c8 0 11.92 6.08 11.92 18v53.04c0 11.92-4 18-11.92 18z"/><path d="m99.11 164.226c-4.418 0-8 3.582-8 8v131.44c0 4.418 3.582 8 8 8s8-3.582 8-8v-131.44c0-4.418-3.582-8-8-8z"/><path d="m137.11 164.226c-4.418 0-8 3.582-8 8v131.44c0 4.418 3.582 8 8 8s8-3.582 8-8v-131.44c0-4.418-3.582-8-8-8z"/><path d="m175.11 164.226c-4.418 0-8 3.582-8 8v131.44c0 4.418 3.582 8 8 8s8-3.582 8-8v-131.44c0-4.418-3.582-8-8-8z"/><path d="m212.79 164.226c-4.418 0-8 3.582-8 8v131.44c0 4.418 3.582 8 8 8s8-3.582 8-8v-131.44c0-4.418-3.582-8-8-8z"/></svg>