<svg enable-background="new 0 0 512 512" height="24" viewBox="0 0 512 512" width="24" xmlns="http://www.w3.org/2000/svg"><path d="m67.839 247.84v-225.655h327.016l61.561 207.907v63.659h-98.114c-17.195 0-32.463 8.221-42.096 20.942-6.704 8.855-10.689 19.887-10.689 31.842v92.294c0 14.965-6.07 28.504-15.862 38.322-9.818 9.792-23.357 15.862-38.322 15.862-19.596 0-35.986-14.912-37.794-34.416-3.919-42.386-9.673-86.211-14.041-116.892-5.608-39.444-31.446-73.477-68.422-88.322-7.878-3.154-15.413-5.133-22.051-5.543z" fill="#ffcfae"/><path d="m276.062 52.404v-.211c0-11.151 3.497-21.497 9.462-30.008h109.331l61.561 207.907v63.659h-98.114c-17.195 0-32.463 8.221-42.096 20.942-13.566-11.019-21.668-27.659-21.668-45.553v-2.89c0-5.345.726-10.623 2.138-15.704 2.098-7.614 5.687-14.542 10.372-20.507-7.97-10.148-12.51-22.843-12.51-36.224v-2.903c0-5.331.726-10.623 2.138-15.704 1.161-4.236 2.811-8.261 4.83-12.035-6.651-5.622-12.088-12.761-15.73-21.061-3.286-7.39-4.962-15.347-4.962-23.595 0-11.336 3.246-21.932 8.855-30.919-8.46-9.303-13.607-21.668-13.607-35.194z" fill="#ffbe92"/><path d="m403.783 52.301h-335.946v-30.115h327.028z" fill="#ffbe92"/><path d="m298.492 52.399v-.201c0-16.573 13.435-30.008 30.008-30.008h69.416c16.573 0 30.008 13.435 30.008 30.008v.201c0 16.573-13.435 30.008-30.008 30.008h-69.416c-16.573 0-30.008-13.435-30.008-30.008z" fill="#ffcfae"/><path d="m427.924 52.194v.203c0 16.573-13.437 30.01-30.01 30.01h-69.417c-16.573 0-30.01-13.437-30.01-30.01v-.203c0-2.557.325-5.044.923-7.419 3.308 12.98 15.081 22.581 29.086 22.581h69.417c14.005 0 25.778-9.601 29.086-22.581.6 2.376.925 4.862.925 7.419z" fill="#ffbe92"/><path d="m460.578 230.094h-107.321c-6.226 0-12.089-1.571-17.21-4.335-11.362-6.125-19.073-18.141-19.073-31.948v-2.895c0-3.361.451-6.605 1.31-9.689 4.233-15.334 18.287-26.594 34.973-26.594h107.322c20.033 0 36.283 16.25 36.283 36.283v2.895c0 20.032-16.251 36.283-36.284 36.283z" fill="#ffcfae"/><path d="m423.582 154.632h-84.234c-14.767 0-27.453-8.845-33.039-21.546-1.979-4.452-3.07-9.384-3.07-14.563 0-19.946 16.163-36.123 36.109-36.123h84.234c19.946 0 36.109 16.178 36.109 36.123 0 9.965-4.044 19-10.577 25.532s-15.566 10.577-25.532 10.577z" fill="#ffcfae"/><path d="m460.581 305.421h-107.322c-6.226 0-12.089-1.571-17.21-4.335-11.362-6.125-19.073-18.141-19.073-31.948v-2.895c0-3.361.451-6.605 1.31-9.689 4.233-15.334 18.287-26.594 34.973-26.594h107.322c20.033 0 36.283 16.25 36.283 36.283v2.895c0 20.033-16.251 36.283-36.283 36.283z" fill="#ffcfae"/><path d="m282.824 219.006c-2.685 0-5.286-1.422-6.674-3.94-.111-.201-11.382-20.38-32.976-40.205-28.505-26.171-60.642-39.442-95.516-39.442-4.204 0-7.611-3.407-7.611-7.611s3.407-7.611 7.611-7.611c38.431 0 75.156 15.15 106.203 43.812 23.279 21.49 35.134 42.823 35.627 43.72 2.024 3.685.679 8.312-3.005 10.337-1.162.637-2.42.94-3.659.94z" fill="#ffbe92"/><path d="m15.136 259.571v-251.452c0-4.484 3.635-8.119 8.119-8.119h61.146c4.484 0 8.119 3.635 8.119 8.119v251.452c0 4.484-3.635 8.119-8.119 8.119h-61.146c-4.484 0-8.119-3.635-8.119-8.119z" fill="#ff5f5f"/><path d="m15.136 259.571v-251.452c0-4.484 3.635-8.119 8.119-8.119h18.687v267.69h-18.687c-4.484 0-8.119-3.635-8.119-8.119z" fill="#f44d4d"/><path d="m59.877 243.389h-6.936c-4.204 0-7.611-3.407-7.611-7.611s3.407-7.611 7.611-7.611h6.936c4.204 0 7.611 3.407 7.611 7.611s-3.407 7.611-7.611 7.611z" fill="#a4e7ff"/><path d="m496.864 266.247v2.892c0 3.359-.447 6.607-1.309 9.692-4.232 15.335-18.288 26.59-34.972 26.59h-107.323c-20.033 0-36.281-16.248-36.281-36.281v-2.892c0-2.07.173-4.1.507-6.079 2.892 17.141 17.811 30.202 35.774 30.202h107.322c16.684 0 30.74-11.255 34.972-26.59.335-1.177.599-2.385.802-3.603.335 1.979.508 3.999.508 6.069z" fill="#ffbe92"/><path d="m459.691 118.503c0 19.952-16.157 36.129-36.109 36.129h-84.234c-19.942 0-36.109-16.177-36.109-36.129 0-2.578.274-5.084.792-7.51 3.471 16.329 17.963 28.579 35.317 28.579h84.234c17.364 0 31.857-12.26 35.327-28.589.508 2.425.782 4.942.782 7.52z" fill="#ffbe92"/><path d="m496.862 190.91v2.902c0 3.359-.457 6.607-1.309 9.682-4.232 15.335-18.288 26.6-34.972 26.6h-107.323c-20.033 0-36.292-16.248-36.292-36.281v-2.902c0-2.07.173-4.1.507-6.069 2.892 17.131 17.821 30.202 35.784 30.202h107.323c16.684 0 30.74-11.265 34.972-26.6.325-1.177.589-2.375.802-3.593.335 1.969.508 3.998.508 6.059z" fill="#ffbe92"/><g fill="#ff5f5f"><path d="m162.239 454.829h-30.065c-4.204 0-7.611-3.407-7.611-7.612s3.407-7.611 7.611-7.611h30.065c4.204 0 7.611 3.407 7.611 7.611s-3.407 7.612-7.611 7.612z"/><path d="m147.206 512c-1.947 0-3.896-.743-5.383-2.229-2.972-2.973-2.972-7.792 0-10.765l21.26-21.26c2.973-2.971 7.792-2.971 10.765 0 2.972 2.973 2.972 7.792 0 10.765l-21.26 21.26c-1.486 1.486-3.435 2.229-5.382 2.229z"/><path d="m168.465 418.916c-1.947 0-3.896-.743-5.383-2.229l-21.26-21.26c-2.972-2.973-2.972-7.792 0-10.765 2.973-2.971 7.792-2.971 10.765 0l21.26 21.26c2.972 2.973 2.972 7.792 0 10.765-1.486 1.485-3.434 2.229-5.382 2.229z"/><path d="m394.156 454.829h-30.066c-4.204 0-7.612-3.407-7.612-7.612s3.407-7.611 7.612-7.611h30.066c4.204 0 7.611 3.407 7.611 7.611s-3.407 7.612-7.611 7.612z"/><path d="m357.863 418.916c-1.947 0-3.896-.743-5.383-2.229-2.972-2.973-2.972-7.792 0-10.765l21.26-21.26c2.973-2.971 7.792-2.971 10.765 0 2.972 2.973 2.972 7.792 0 10.765l-21.26 21.26c-1.486 1.485-3.435 2.229-5.382 2.229z"/><path d="m379.123 512c-1.947 0-3.896-.743-5.383-2.229l-21.26-21.26c-2.972-2.973-2.972-7.792 0-10.765 2.973-2.971 7.792-2.971 10.765 0l21.26 21.26c2.972 2.973 2.972 7.792 0 10.765-1.486 1.486-3.435 2.229-5.382 2.229z"/></g></svg>