<svg enable-background="new 0 0 377.695 377.695" height="24" viewBox="0 0 377.695 377.695" width="24" xmlns="http://www.w3.org/2000/svg"><path d="m51.247 171.174c-11.2 0-20-8.8-20-20v-78.4c0-16.8 14.4-30.4 31.2-29.6 8 0 16 4 21.6 9.6-.8-3.2-1.6-6.4-1.6-10.4.8-20 17.6-36 37.6-36 15.2 0 28.8 10.4 33.6 24.8 15.2-13.6 38.4-12 52 4 1.6 2.4 4 4.8 4.8 7.2 5.6-4 11.2-5.6 18.4-5.6 16.8 0 30.4 13.6 30.4 30.4 0 7.2-2.4 13.6-7.2 19.2l-2.4 3.2h-56.8v1.6 8.8 4c0 20-16.8 36-37.6 36-16.8 0-32-12.8-35.2-29.6-7.2 15.2-25.6 21.6-40.8 14.4-3.2-1.6-5.6-3.2-8-5.6v32.8c0 11.2-8.8 20-20 19.2z" fill="#fff"/><path d="m192.847 89.574h-31.2v1.6 8.8 4c0 13.6-8.8 26.4-20.8 32 4.8 2.4 10.4 3.2 15.2 3.2 20 0 36.8-16 36.8-36 0-.8 0-2.4 0-4 0-3.2 0-5.6 0-8.8 0 0 0 0 0-.8z" fill="#f7eeba"/><path d="m228.847 37.574c-5.6 0-10.4 1.6-15.2 4 14.4 8 19.2 25.6 11.2 40-.8 1.6-2.4 3.2-3.2 4.8l-2.4 3.2h31.2l2.4-3.2c4.8-5.6 7.2-12 7.2-19.2-.8-16-14.4-29.6-31.2-29.6z" fill="#f7eeba"/><path d="m86.447 369.573c-15.2 1.6-28.8-8.8-30.4-24 0-2.4 0-4 0-6.4v-167.2l4.8-2.4c7.2-3.2 11.2-10.4 11.2-17.6v-29.6l10.4 4c3.2.8 6.4 1.6 10.4 1.6 7.2 0 15.2-2.4 20.8-7.2l7.2-6.4 4.8 8c6.4 11.2 18.4 17.6 31.2 17.6 20 0 36.8-16 36.8-36 0-.8 0-2.4 0-4l.8-10.4h52.8c4.8 0 8.8 4 8.8 8.8v240.8c1.6 15.2-8.8 28.8-24 30.4-2.4 0-4 0-6.4 0z" fill="#fbcf4c"/><path d="m246.447 89.574h-42.4c4.8 0 8 4 8 8.8v240.8c1.6 15.2-8.8 28.8-24 30.4-2.4 0-4 0-6.4 0h42.4c15.2 1.6 28.8-8.8 30.4-24 0-2.4 0-4 0-6.4v-240.8c0-4.8-3.2-8.8-8-8.8z" fill="#edb248"/><path d="m255.247 327.173v-44.8h28.8c18.4 0 20-18.4 20-26.4v-52.8c0-8-1.6-26.4-20-26.4h-28.8v-44h52.8c23.2 0 36.8 17.6 36.8 48v97.6c0 30.4-13.6 48-36.8 48z" fill="#fbcf4c"/><path d="m308.047 132.774h-25.6c23.2 0 36.8 17.6 36.8 48v97.6c0 30.4-13.6 48-36.8 48h25.6c23.2 0 36.8-17.6 36.8-48v-97.6c0-30.4-13.6-48-36.8-48z" fill="#edb248"/><g fill="#4a2328"><path d="m308.047 124.774h-44.8v-26.4c0-3.2-.8-6.4-2.4-8.8 4.8-6.4 7.2-13.6 7.2-21.6 0-21.6-17.6-38.4-39.2-38.4-4.8 0-10.4.8-14.4 3.2-13.6-16.8-36.8-22.4-56-12-12.8-20.8-40.8-27.2-61.6-13.6-11.2 7.2-18.4 18.4-20 31.2-20-7.2-42.4 2.4-49.6 22.4-1.6 4-2.4 8.8-2.4 12.8v78.4c0 13.6 10.4 25.6 24 27.2v160c-1.6 19.2 12.8 36.8 32 38.4h6.4 138.4c19.2 1.6 36.8-12.8 38.4-32 0-2.4 0-4 0-6.4v-4h44c28 0 44.8-20.8 44.8-56v-98.4c0-35.2-16.8-56-44.8-56zm-60.8 214.399c1.6 11.2-5.6 20.8-16.8 22.4-1.6 0-4 0-5.6 0h-138.4c-11.2 1.6-20.8-5.6-22.4-16.8 0-1.6 0-4 0-5.6v-162.4c9.6-4.8 16-14.4 16-24.8v-18.4c13.6 4.8 28 1.6 38.4-7.2 12.8 20.8 40 28 61.6 15.2 12.8-8 20.8-22.4 21.6-37.6 0-.8 0-2.4 0-3.2s0-1.6 0-2.4h45.6s.8 0 .8.8v240zm-.8-257.599h-53.6c-4.8 0-8 3.2-8 8v1.6.8 7.2 4.8c0 16-13.6 28-29.6 28-13.6 0-24.8-9.6-27.2-23.2-.8-3.2-3.2-6.4-7.2-6.4-3.2 0-6.4 1.6-8 4.8-5.6 11.2-19.2 16-30.4 10.4-2.4-.8-4-2.4-5.6-4-3.2-3.2-8-3.2-11.2 0-1.6 1.6-2.4 3.2-2.4 5.6v32.8c0 6.4-5.6 12-12 12s-12-5.6-12-12v-78.4c0-12.8 11.2-22.4 23.2-21.6 6.4 0 12 3.2 16 7.2 3.2 3.2 8 4 11.2.8 2.4-2.4 3.2-5.6 2.4-8.8-.8-2.4-1.6-5.6-1.6-8 0-16 12.8-28.8 28-28.8 12.8 0 24 8 28 20 1.6 4 5.6 6.4 10.4 4.8.8 0 1.6-.8 2.4-1.6 12-10.4 30.4-8.8 40 4 1.6 1.6 2.4 4 4 5.6 1.6 4 6.4 5.6 10.4 3.2l.8-.8c4-2.4 8.8-4 13.6-4 12 0 22.4 9.6 22.4 21.6 1.6 5.6-.8 10.4-4 14.4zm16.8 104h20.8c8 0 12 6.4 12 18.4v52.8c0 12-4 18.4-12 18.4h-20.8zm73.6 93.599c0 15.2-4 40-28.8 40h-44.8v-28.8h20.8c17.6 0 28-12.8 28-34.4v-52.8c0-20.8-10.4-34.4-28-34.4h-20.8v-28h44.8c24.8 0 28.8 24.8 28.8 40z"/><path d="m98.447 163.974c-4.8 0-8 3.2-8 8v131.2c0 4.8 3.2 8 8 8s8-3.2 8-8v-131.2c0-4.8-4-8-8-8z"/><path d="m136.047 163.974c-4.8 0-8 3.2-8 8v131.2c0 4.8 3.2 8 8 8s8-3.2 8-8v-131.2c0-4.8-3.2-8-8-8z"/><path d="m174.447 163.974c-4.8 0-8 3.2-8 8v131.2c0 4.8 3.2 8 8 8s8-3.2 8-8v-131.2c0-4.8-4-8-8-8z"/><path d="m212.047 163.974c-4.8 0-8 3.2-8 8v131.2c0 4.8 3.2 8 8 8s8-3.2 8-8v-131.2c0-4.8-3.2-8-8-8z"/></g></svg>