<svg height="32" viewBox="0 0 53 68" width="32" xmlns="http://www.w3.org/2000/svg"><g fill="none" fill-rule="evenodd"><path d="m46.917 56.118h-12.671v-4.243h12.671c.586 0 1.061-.476 1.061-1.061v-20.211c0-.585-.475-1.061-1.061-1.061h-8.141v-4.242h8.141c2.925 0 5.304 2.379 5.304 5.303v20.211c0 2.924-2.379 5.304-5.304 5.304" fill="#d5d8d2"/><path d="m34.972 67.409h-28.53c-2.761 0-5-2.239-5-5v-47.346c0-1.104.895-2 2-2h34.53c1.105 0 2 .896 2 2v47.346c0 2.761-2.238 5-5 5" fill="#ecedec"/><path d="m4.624 59.105v-42.678h32.166v42.678c0 1.657-1.343 3-3 3h-26.166c-1.657 0-3-1.343-3-3" fill="#fc3"/><path d="m4.624 13.063h-.182c-1.105 0-2 .896-2 2v47.346c0 2.761 2.238 5 5 5h4.257c-2.761 0-5-2.239-5-5v-.449c-1.204-.39-2.075-1.52-2.075-2.855z" fill="#f7f7f6"/><path d="m4.624 16.427v42.678c0 1.335.871 2.465 2.075 2.855v-44.533h-2.075z" fill="#ffe699"/><g fill="#e2ad27"><path d="m19.207 49.012v7.106c0 .828.671 1.5 1.5 1.5.828 0 1.5-.672 1.5-1.5v-7.106c0-.829-.672-1.5-1.5-1.5-.829 0-1.5.671-1.5 1.5"/><path d="m27.978 49.012v7.106c0 .828.671 1.5 1.5 1.5.828 0 1.5-.672 1.5-1.5v-7.106c0-.829-.672-1.5-1.5-1.5-.829 0-1.5.671-1.5 1.5"/><path d="m10.436 49.012v7.106c0 .828.672 1.5 1.5 1.5s1.5-.672 1.5-1.5v-7.106c0-.829-.672-1.5-1.5-1.5s-1.5.671-1.5 1.5"/></g><g fill="#f9f0d9"><path d="m8.619 13.432c0 2.207-1.789 3.995-3.995 3.995-2.207 0-3.996-1.788-3.996-3.995s1.789-3.996 3.996-3.996c2.206 0 3.995 1.789 3.995 3.996"/><path d="m4.624 7.555h32.166v9.872h-32.166z"/><path d="m12.728 7.555c0 2.238-1.814 4.053-4.052 4.053s-4.052-1.815-4.052-4.053 1.814-4.052 4.052-4.052 4.052 1.814 4.052 4.052"/><path d="m22.653 5.921c0 3.14-2.546 5.687-5.687 5.687s-5.687-2.547-5.687-5.687c0-3.141 2.546-5.687 5.687-5.687s5.687 2.546 5.687 5.687"/><path d="m29.951 6.621c0 2.754-2.233 4.987-4.986 4.987-2.754 0-4.987-2.233-4.987-4.987s2.233-4.986 4.987-4.986c2.753 0 4.986 2.232 4.986 4.986"/><path d="m31.726 8.227c0 1.867-1.514 3.381-3.381 3.381s-3.38-1.514-3.38-3.381 1.513-3.381 3.38-3.381 3.381 1.514 3.381 3.381"/><path d="m36.79 7.555c0 1.868-1.514 3.381-3.381 3.381s-3.381-1.513-3.381-3.381c0-1.867 1.514-3.381 3.381-3.381s3.381 1.514 3.381 3.381"/></g><path d="m27.853 34.024c0 1.045.848.832 1.893.832s1.893.213 1.893-.832c0-1.046-.848-1.893-1.893-1.893s-1.893.847-1.893 1.893" fill="#41443e"/><path d="m25.552 28.925c0 1.386-1.124 2.51-2.51 2.51-1.387 0-2.51-1.124-2.51-2.51 0-1.387 1.123-2.511 2.51-2.511 1.386 0 2.51 1.124 2.51 2.511" fill="#f9f0d9"/><path d="m20.532 15.557h5.02v13.368h-5.02z" fill="#f9f0d9"/><path d="m13.56 34.024c0 1.045-.847.832-1.892.832-1.046 0-1.893.213-1.893-.832 0-1.046.847-1.893 1.893-1.893 1.045 0 1.892.847 1.892 1.893" fill="#41443e"/><path d="m24.965 38.719c0 1.131-1.907 4.169-4.258 4.169-2.352 0-4.258-3.038-4.258-4.169s1.906-2.048 4.258-2.048c2.351 0 4.258.917 4.258 2.048" fill="#f492a6"/><path d="m31.166 38.36c0 .784-.636 1.42-1.42 1.42s-1.419-.636-1.419-1.42.635-1.42 1.419-1.42 1.42.636 1.42 1.42" fill="#e2ad27"/><path d="m10.248 38.36c0 .784.636 1.42 1.42 1.42s1.419-.636 1.419-1.42-.635-1.42-1.419-1.42-1.42.636-1.42 1.42" fill="#e2ad27"/><path d="m37.972 13.063h-1.182v46.042c0 1.657-1.343 3-3 3h-4.857v.304c0 2.761-2.239 5-5 5h11.039c2.762 0 5-2.239 5-5v-47.346c0-1.104-.895-2-2-2" fill="#e3e4e2"/><path d="m36.79 17.427h-7.857v14.887c.246-.117.522-.183.813-.183 1.045 0 1.893.847 1.893 1.893 0 .742-.428.849-1.05.849-.253 0-.54-.017-.843-.017-.291 0-.567.016-.813.017v2.323c.23-.161.511-.256.813-.256.784 0 1.42.636 1.42 1.42s-.636 1.42-1.42 1.42c-.302 0-.583-.095-.813-.256v8.09c.169-.066.352-.102.545-.102.828 0 1.5.671 1.5 1.5v7.106c0 .828-.672 1.5-1.5 1.5-.193 0-.376-.036-.545-.103v4.59h4.857c1.657 0 3-1.343 3-3z" fill="#f6c534"/><path d="m29.478 47.512c-.193 0-.376.036-.545.102v9.901c.169.067.352.103.545.103.828 0 1.5-.672 1.5-1.5v-7.106c0-.829-.672-1.5-1.5-1.5" fill="#daa828"/><path d="m36.79 13.063h-9.857c1.104 0 2 .896 2 2v2.364h7.857z" fill="#f0e7d1"/><path d="m29.746 32.131c-.291 0-.567.066-.813.183v2.559c.246-.001.522-.017.813-.017.303 0 .59.017.843.017.622 0 1.05-.107 1.05-.849 0-1.046-.848-1.893-1.893-1.893" fill="#41443e"/><path d="m29.746 36.94c-.302 0-.583.095-.813.256v2.328c.23.161.511.256.813.256.784 0 1.42-.636 1.42-1.42s-.636-1.42-1.42-1.42" fill="#daa828"/><path d="m40.306 13.911c0 1.942-1.574 3.516-3.516 3.516s-3.517-1.574-3.517-3.516 1.575-3.517 3.517-3.517 3.516 1.575 3.516 3.517" fill="#f9f0d9"/><path d="m21.506 36.115c-.343 0-.63.205-.799.496-.17-.291-.457-.496-.8-.496-.529 0-.959.462-.959 1.032 0 .571.43 1.033.959 1.033.343 0 .63-.205.8-.496.169.291.456.496.799.496.53 0 .96-.462.96-1.033 0-.57-.43-1.032-.96-1.032" fill="#f9f0d9"/></g></svg>