<svg enable-background="new 0 0 512 512" height="24" viewBox="0 0 512 512" width="24" xmlns="http://www.w3.org/2000/svg"><g fill="#89dd8e"><path d="m322.001 227.659-.009 16.017-29.891 12.146c-12.173 4.943-22.446 13.82-28.622 25.408-4.619 8.652-7.14 18.421-7.14 28.523 0-.63-.009-1.26-.027-1.891-.774-24.777-18.088-45.99-41.983-52.616l-23.652-6.563v-21.023c0-16.827 4.987-33.781 15.135-47.241l50.527-66.77 50.518 66.77c9.733 12.864 15.144 29.737 15.144 47.24z"/><path d="m409.605 265.572-9.184 16.512-27.785 49.96c-.882 1.549-1.828 3.079-2.809 4.574-6.87 10.489-16.008 19.736-25.534 27.677-.018.009-.027.027-.045.036.099-.261.234-.531.378-.801 1.666-2.98 2.557-6.311 2.665-9.715.009-.171.009-.351.009-.522v-119.899l-25.336 10.291v-.009l.036-16.017c0-10.497-1.957-20.984-5.87-30.729 6.14-7.023 13.478-12.686 21.482-16.458l67.31-31.737 8.697 52.157 3.547 21.239c2.361 14.153-.34 29.657-7.561 43.441z"/><path d="m205.841 109.053v-11.368c0-13.467 4.157-26.436 11.643-36.33l38.853-51.355 38.853 51.356c7.486 9.894 11.643 22.862 11.643 36.33v13.87l-7.879 10.413c-6.819 9.003-10.88 20.572-11.548 32.746l-31.07-41.07-30.985 40.942c-.244-13.032-4.369-25.524-11.633-35.121z"/><path d="m256.349 395.31h-.011v-85.56c0-10.103 2.519-19.874 7.137-28.524 6.184-11.585 16.457-20.46 28.623-25.403l55.201-22.427v.095 77.442 42.363c0 3.893-1.051 7.715-3.043 11.06-9.872 8.123-22.428 16.192-37.899 22.056-14.177 5.378-30.794 8.898-50.008 8.898z"/><path d="m196.538 196.93c-4.449 11.566-5.785 20.705-5.861 32.286-.043 6.488 0 12.978 0 19.466l-25.3-7.023-.001 69.273v47.151c.018.765.104 2.148.383 2.868l2.634 3.353c-19.411-16.026-28.352-32.259-28.352-32.259l-36.977-66.472c-7.221-13.784-9.922-29.288-7.563-43.442l12.254-73.396 16.602 7.824 50.698 23.913c8.005 3.772 15.343 9.435 21.483 16.458z"/><path d="m165.376 310.934v-69.278l48.957 13.587c23.89 6.63 41.205 27.839 41.976 52.62.02.628.029 1.257.029 1.888v85.56c-19.225 0-35.831-3.521-50.019-8.897-15.471-5.875-28.053-13.966-37.925-22.11l-2.637-3.354c-.28-.719-.363-2.099-.38-2.87v-47.146z"/><path d="m287.407 154.714c.668-12.174 4.729-23.743 11.548-32.746l7.879-10.413 30.974-40.942 38.853 51.355c7.168 9.459 11.283 21.76 11.622 34.612l-50.666 23.891c-8.006 3.775-15.344 9.438-21.484 16.458-2.397-5.97-5.514-11.548-9.279-16.51z"/><path d="m124.359 156.559v-.753c0-13.467 4.157-26.447 11.643-36.34l38.864-51.345 30.974 40.932 7.879 10.413c7.264 9.597 11.389 22.088 11.633 35.121l-19.543 25.832c-3.754 4.963-6.871 10.54-9.268 16.51-6.14-7.02-13.478-12.683-21.484-16.458z"/></g><path d="m280.494 393.364v91.826c0 9.286-7.525 16.81-16.81 16.81h-28.137c-9.162 0-16.81-7.648-16.81-16.81 0-6.934 1.261-13.798 3.682-20.302 9.086-24.455 12.918-60.557 13.868-70.903 6.334.86 13.018 1.331 20.052 1.331h.01c8.556-.001 16.601-.702 24.145-1.952z" fill="#b7eabc"/><path d="m405.283 273.346c-4.824-2.685-10.915-.949-13.6 3.877l-27.746 49.874c-1.96 3.444-4.203 6.723-6.636 9.849v-103.552c0-3.328-1.655-6.438-4.416-8.295-2.76-1.858-6.263-2.222-9.348-.969l-11.539 4.687.003-1.157c0-9.733-1.466-19.216-4.365-28.277 4.198-3.984 9.004-7.394 14.246-9.865l46.403-21.881 8.949-4.219 6.522 39.12c.909 5.447 6.054 9.124 11.509 8.219 5.448-.908 9.128-6.061 8.22-11.509l-8.697-52.157c-.516-3.09-2.449-5.76-5.225-7.213-2.775-1.454-6.071-1.522-8.904-.187l-4.232 1.995c-2.175-9.507-6.187-18.355-11.791-25.75l-38.854-51.356c-1.89-2.498-4.842-3.966-7.975-3.966s-6.085 1.468-7.975 3.967l-14.346 18.962c-2.005-10.424-6.209-20.14-12.322-28.219l-38.852-51.357c-1.89-2.499-4.842-3.967-7.975-3.967s-6.085 1.468-7.975 3.967l-38.854 51.354c-5.73 7.573-9.774 16.586-11.911 26.268l-14.757-19.503c-1.891-2.498-4.842-3.966-7.974-3.966-.001 0-.001 0-.001 0-3.132 0-6.083 1.467-7.974 3.965l-38.863 51.346c-6.074 8.025-10.266 17.666-12.287 28.013l-3.724-1.756c-2.832-1.334-6.126-1.266-8.902.188-2.774 1.453-4.708 4.123-5.224 7.211l-12.255 73.398c-2.721 16.324.322 33.984 8.568 49.727.039.074.079.148.119.221l36.957 66.435c.403.731 10.099 18.101 30.744 35.147.001.001.003.002.004.003 12.335 10.174 26.042 18.162 40.746 23.746 7.296 2.765 14.841 4.934 22.593 6.501-1.728 14.953-5.48 40.716-12.323 59.133-2.859 7.683-4.31 15.687-4.31 23.791 0 14.616 12.193 26.811 26.81 26.811h28.138c14.783 0 26.811-12.027 26.811-26.811v-83.603c6.638-1.495 13.116-3.437 19.408-5.823 14.667-5.56 28.363-13.528 40.707-23.685.198-.163.388-.336.572-.514 11.355-9.531 20.445-19.442 27.005-29.458 1.092-1.664 2.146-3.385 3.179-5.201l27.794-49.96c2.687-4.825.951-10.914-3.875-13.599zm-149.306.823c-8.696-13.587-22.344-23.948-38.97-28.562l-16.338-4.534c-.009-3.93-.017-7.861.009-11.791.073-11.261 1.471-19.038 5.146-28.633 2.086-5.193 4.763-9.97 7.96-14.197l42.552-56.234 42.553 56.244c3.192 4.209 5.868 8.977 7.956 14.172.003.007.004.015.007.022 3.418 8.513 5.15 17.598 5.15 26.981l-.021 9.316-23.646 9.607c-13.705 5.567-25.101 15.315-32.358 27.609zm81.831-186.982 30.884 40.821c4.729 6.242 7.858 14.061 9.061 22.482l-44.403 20.936c-5.119 2.416-9.948 5.478-14.372 9.004-1.297-2.094-2.681-4.112-4.147-6.046l-17.127-22.636c1.056-8.503 4.023-16.878 9.226-23.747l7.879-10.413c.003-.004.006-.009.009-.013zm-121.968 18.509v-8.011c0-11.34 3.416-22.099 9.618-30.296l30.879-40.814 30.879 40.815c6.202 8.196 9.617 18.955 9.617 30.295v10.513c-1.854 2.45-3.707 4.9-5.561 7.35-3.685 4.87-6.687 10.217-8.927 15.9l-18.033-23.837c-1.89-2.498-4.841-3.966-7.974-3.967h-.001c-3.133 0-6.084 1.468-7.974 3.965l-17.399 22.99c-2.253-6.18-5.399-12.051-9.369-17.298-1.918-2.535-3.836-5.07-5.755-7.605zm-71.864 19.805 30.889-40.81 30.881 40.81c5.643 7.456 8.709 16.681 9.438 25.952-3.255 4.302-6.509 8.604-9.764 12.905-3.984 5.266-8.246 10.448-11.724 16.071-4.425-3.525-9.254-6.588-14.373-9.002l-44.697-21.082c.913-9.306 4.154-17.977 9.35-24.844zm4.805 201.682-36.915-66.358c-6.195-11.88-8.504-25.033-6.501-37.047l10.078-60.365 55.35 26.104c5.258 2.463 10.055 5.908 14.267 9.887-3.043 9.497-4.308 18.338-4.383 29.746-.014 2.123-.019 4.246-.02 6.369l-12.607-3.499c-3.011-.837-6.241-.216-8.726 1.675-2.487 1.891-3.948 4.836-3.948 7.96v95.054c-4.391-5.627-6.55-9.445-6.595-9.526zm26.797 30.079-.201-.256.001-102.193 12.625 3.504c.025.007.052.01.077.017l23.579 6.544c19.781 5.49 34.032 23.294 34.655 43.295.017.524.024 1.051.024 1.577v75.208c-.073-.005-.144-.013-.217-.018-12.689-.917-24.846-3.553-36.253-7.876-12.326-4.68-23.858-11.34-34.29-19.802zm94.917 47.436v80.492c0 3.755-3.056 6.811-6.811 6.811h-28.138c-3.714 0-6.81-3.097-6.81-6.811 0-5.713 1.027-11.371 3.056-16.819 7.481-20.138 11.533-47.479 13.398-63.435 8.418.575 16.901.501 25.305-.238zm32.317-27.635c-11.431 4.335-23.616 6.974-36.338 7.885-.045.003-.09.006-.135.01v-75.208c0-8.278 2.061-16.513 5.959-23.815 4.954-9.283 13.323-16.686 23.564-20.847l41.438-16.835v105.044c0 .132-.016.262-.02.393-.073 1.518-.445 2.985-1.07 4.309-10.21 8.119-21.435 14.53-33.398 19.064z"/><path d="m427.144 239.7c-1.081-5.325-6.412-8.929-11.76-7.85-5.333 1.083-8.928 6.405-7.85 11.76 1.084 5.341 6.403 8.92 11.76 7.85 5.331-1.099 8.921-6.397 7.85-11.76-.13-.64.13.65 0 0z"/></svg>